<?xml version="1.0" encoding="utf-8" ?>
<svg xmlns="http://www.w3.org/2000/svg" xmlns:xlink="http://www.w3.org/1999/xlink" width="1096" height="410">
	<path fill="#2B396F" fill-opacity="0.0078431377" d="M0 0L1095.06 0C1095.48 0.647615 1095.8 1.3003 1095.88 2.07771C1096.76 10.3118 1096 19.4658 1096 27.7944L1096.01 81.8773L1096.01 257.179L1096 370.352C1096 376.705 1096.86 404.066 1095.8 408.417C1095.66 408.988 1095.38 409.51 1095.06 410L0 410L0 0ZM412.093 148.86C411.989 148.937 411.887 149.016 411.783 149.092C406.715 152.792 399.267 154.295 393.61 157.197C373.081 167.727 358.682 183.51 346.483 202.752C309.959 208.865 280.185 225.817 258.461 256.243C241.321 280.248 232.197 309.183 237.128 338.67C240.322 357.774 250.409 374.982 266.297 386.234C290.951 403.693 324.169 406.2 353.201 401.169C388.1 395.121 417.034 375.174 437.33 346.341C447.247 332.254 455.511 317.33 464.062 302.397C481.055 272.727 498.754 243.225 523.71 219.44C531.639 211.883 541.029 204.056 550.847 199.092C558.934 195.002 566.884 193.671 575.398 191.109C575.365 191.174 575.335 191.24 575.299 191.303C574.476 192.708 571.874 193.505 570.429 194.116C561.85 197.74 554.705 201.076 547.212 206.681C511.568 233.347 491.687 280.896 490.788 324.663C490.623 332.69 490.58 341.629 492.347 349.486C492.843 351.693 493.496 353.617 495.066 355.311L496.227 355.74C499.091 353.766 513.966 324.838 517.368 318.991C520.525 313.644 523.799 308.368 527.187 303.164C543.083 278.632 562.909 254.889 584.621 235.286C606.255 215.752 629.932 199.815 656.533 187.831C662.419 185.156 668.39 182.672 674.436 180.383C678.17 178.965 682.958 177.756 686.35 175.75C682.471 180.091 670.468 185.192 664.986 188.291C660.833 190.638 656.768 193.225 652.809 195.886C638.71 205.361 625.541 217.013 613.732 229.203C595.592 247.929 579.848 268.397 564.874 289.699C544.352 318.893 523.659 362.859 490.977 379.815C489.198 380.739 487.476 381.623 485.522 382.124C482.837 382.812 474.747 383.621 474.751 386.931C475.962 388.149 477.848 388.144 479.466 388.17C482.71 388.223 486.168 387.38 489.343 386.758C509.25 382.854 526.635 371.646 540.823 357.481C560.098 338.237 572.608 312.853 585.781 289.316C595.21 272.468 605.214 255.574 616.721 240.048C625.138 228.691 635.14 217.214 646.099 208.235C649.451 205.488 663.618 195.356 665.308 193.281L665.482 193.221C670.935 191.298 676.323 187.192 681.393 184.324C687.264 181.004 693.578 178.316 699.866 175.897C706.676 173.277 713.644 171.073 720.869 169.938C733.199 168.001 768.827 167.878 781.255 169.597C788.687 170.625 796.85 172.779 803.667 175.999C809.406 178.709 819.362 185.735 824.257 187.351L825.479 186.656C825.536 185.044 824.926 184.161 823.82 182.989C818.06 176.883 807.316 172.231 799.435 169.448C801.819 162.4 803.648 150.952 801.569 143.578C801.584 147.94 797.089 154.241 794.087 157.242C789.901 161.429 784.594 163.787 778.648 163.735C768.789 163.649 759.116 161.007 749.121 161.282C736.648 161.626 724.261 164.838 711.862 165.039C712.418 164.09 712.688 163.24 712.764 162.146C713.228 155.494 713.655 98.2174 712.536 93.7004C712.405 93.1712 712.174 92.6803 711.902 92.2104L748.944 92.0298C756.343 92.0146 764.267 91.4298 771.558 92.7163C775.353 93.3858 779.668 94.86 782.442 97.6455C783.734 98.9423 785.297 100.906 785.512 102.757C788.358 97.9777 788.148 84.9345 786.647 79.562C786.453 78.8681 786.113 78.2727 785.669 77.712C785.148 80.452 783.104 82.9322 780.85 84.4979C777.384 86.9063 773.087 87.9834 768.963 88.54C761.882 89.4955 754.385 88.9441 747.244 88.869C735.558 88.7607 723.872 88.7282 712.186 88.7717C713.523 84.0126 713.641 18.8328 712.034 15.3745C711.989 15.278 711.949 15.1797 711.906 15.0823L752.741 14.9965C761.704 14.9657 771.68 13.9784 780.433 15.8868C785.896 17.0778 791.137 19.6649 795.131 23.6202C797.786 26.2495 800.82 31.0293 800.837 34.8453C800.841 35.6562 800.763 36.4665 800.665 37.2705C803.686 32.7558 801.884 21.5811 800.869 16.4758C800.52 14.7191 800.162 12.638 798.822 11.3369L676.574 11.2461C681.771 13.2067 686.469 17.1161 688.755 22.2681C690.464 26.1214 690.503 30.8125 690.733 34.9787C691.647 51.5736 690.883 68.4782 690.881 85.1037C690.88 96.6349 692.501 148.954 689.185 157.237C687.11 162.421 682.386 166.265 677.342 168.404C676.673 168.685 675.994 168.938 675.304 169.162C681.301 168.982 688.597 168.033 694.516 168.99C694.406 169.058 694.296 169.127 694.185 169.193C688.88 172.343 675.561 174.866 668.64 177.662C639.171 189.57 612.251 205.164 588.146 226.025C564.176 246.865 543.19 270.909 525.782 297.479C520.357 305.597 515.243 313.918 510.45 322.425C506.864 328.768 503.57 335.804 499.139 341.605C498.312 342.687 497.186 343.425 496.058 344.161C498.438 341.923 498.849 338.264 499.58 335.218C501.391 327.671 502.799 320.038 504.585 312.488C512.868 277.48 533.237 232.947 561.086 209.315C567.308 204.036 577.414 196.409 585.478 195.379C590.337 194.758 595.411 195.165 600.213 194.356C602.108 194.036 603.778 193.721 604.338 191.765C602.451 188.36 596.983 185.47 593.826 183.14C572.45 167.356 551.067 155.648 525.45 148.304C519.117 146.488 512.362 144.669 505.792 144.049C513.333 137.605 514.796 123.096 515.528 113.689C517.112 93.3339 515.92 69.3549 515.813 48.5618C515.775 41.1841 514.631 32.0204 516.26 24.8962C517.755 18.3586 524.985 15.6915 526.24 11.2152L499.742 11.2037C504.407 13.1943 509.135 16.7887 511.004 21.6796C514.549 30.9573 513.35 106.459 511.752 119.487C511.071 125.035 509.432 130.833 507.075 135.901C505.96 138.299 504.373 141.692 502.083 143.159C479.352 137.121 451.143 140.912 428.204 144.562C428.491 141.261 421.266 125.819 420.562 119.787C418.404 101.3 419.674 81.8433 419.614 63.2363C419.582 52.9898 418.038 33.9099 420.309 24.8054C421.9 18.4238 429.685 15.3279 430.685 11.2158C415.929 11.3187 401.013 10.8172 386.28 11.4262C386.332 11.5049 386.383 11.5843 386.436 11.6624C389.056 15.5323 393.605 17.6711 395.576 22.1376C401.106 34.675 395.433 97.5673 399.11 118.045C400.352 124.959 402.999 131.603 406.332 137.755C407.71 140.299 412.093 146.179 412.093 148.86ZM824.368 309.832C824.367 309.954 824.367 310.076 824.364 310.199C824.072 322.293 783.653 351.887 796.122 365.539C799.839 369.609 805.392 370.911 810.702 371.079C823.625 371.487 833.638 363.964 842.601 355.495C845.886 352.39 853.346 345.963 854.412 341.551C854.462 341.638 854.516 341.724 854.564 341.813C858.004 348.105 848.388 363.192 866.791 369.386C876.878 372.781 887.517 370.693 896.815 366.025C923.614 352.572 940.807 325.066 958.954 302.38C962.744 297.643 973.323 286.251 974.738 281.022C974.836 280.66 974.82 280.25 974.786 279.88C977.455 280.735 980.528 281.853 981.883 284.504C983.109 286.903 982.748 289.7 981.887 292.151C975.346 310.773 933.138 344.239 942.872 364.629C944.197 367.406 946.512 369.291 949.408 370.259C956.514 372.633 965.598 370.62 972.06 367.264C977.269 364.559 985.055 359.329 987.628 353.875C987.67 353.948 987.713 354.019 987.753 354.093C988.617 355.704 988.802 357.662 989.23 359.427C990.66 365.319 994.985 368.292 1000.47 370.035C1014.39 374.46 1036.12 370.608 1048.9 363.955C1057.85 359.295 1083.33 337.48 1085.95 328.394C1086.16 327.661 1086.12 327.037 1085.91 326.302L1085.07 325.501C1079.97 326.785 1060.78 354.686 1045.88 359.436C1052.77 355.312 1057.3 346.384 1059.21 338.824C1060.07 335.328 1060.51 331.74 1060.51 328.139C1060.5 320.365 1057.41 284.384 1054.45 278.745C1060.13 275.633 1067.52 264.926 1069.35 258.676C1069.87 256.904 1070.17 254.965 1069.22 253.293C1068.87 252.683 1068.24 252.479 1067.64 252.155C1063.44 252.308 1058.65 256.913 1055.93 259.85C1050.44 265.79 1050.48 274.609 1045.92 281.141C1040.06 289.536 1027.57 301.275 1020.39 309.44C1010.04 321.197 976.393 366.809 961.31 367.185C960.401 367.208 959.724 366.834 958.984 366.351C958.22 365.217 958.268 364.149 958.519 362.848C962.41 342.634 1004.15 307.916 989.175 284.967C986.545 280.935 982.785 276.953 981.132 272.411C979.68 268.42 979.571 261.512 976.536 258.567C976.465 258.622 976.396 258.678 976.325 258.731C973.001 261.242 966.497 262.969 965.803 267.786C965.032 273.143 970.033 275.436 970.269 279.087C969.573 283.502 931.525 330.254 925.662 336.605C919.239 343.565 912.366 350.564 904.673 356.134C895.165 363.02 883.897 367.98 871.919 366.093C870.135 365.812 867.903 365.089 866.826 363.519C865.47 361.542 865.647 358.232 866.151 356.011C867.892 348.351 881.289 332.787 881.082 328.32C899.131 326.655 918.564 316.068 930.033 302.186C933.144 298.42 937.772 292.012 937.256 286.826C937.075 285.003 936.169 283.539 934.72 282.438C930.27 279.055 922.366 279.121 917.11 279.932C898.965 282.731 881.766 297.139 871.21 311.678C866.866 317.66 862.999 323.984 858.582 329.914C851.057 340.017 831.351 364.401 818.46 366.324C816.952 366.549 815.6 366.338 814.129 365.994C813.422 365.424 813.105 365.353 813.018 364.395C812.304 356.573 836.928 329.491 833.455 311.801C841.894 310.31 850.195 307.16 855.271 299.846C857.803 296.198 859.523 291.968 858.671 287.481C858.214 285.07 857.15 283.34 855.102 281.955C850.961 279.154 845.226 279.044 840.494 280.03C827.99 282.634 817.812 292.038 808.609 300.321C806.798 301.95 804.368 304.757 802.087 305.577C801.023 305.843 800.017 305.73 798.94 305.647C805.349 297.774 807.067 287.615 815.506 280.909C832.249 267.603 907.943 240.472 905.685 215.459C905.437 212.703 904.104 210.312 901.948 208.59C896.884 204.547 888.791 204.413 882.684 205.175C855.253 208.598 827.767 239.461 811.873 260.08C805.921 267.802 800.494 275.959 794.248 283.449C786.553 292.677 778.052 301.189 770.364 310.445C755.232 328.661 741.345 352.499 720.167 364.216C718.071 365.375 715.486 366.972 713.082 367.278C712.369 367.369 711.828 367.247 711.189 366.935C710.212 364.986 710.614 363.429 711.279 361.439C718.205 340.705 753.243 309.298 742.233 286.292C740.21 282.064 736.025 279.214 733.973 275.047C731.704 270.441 731.824 262.049 728.485 258.573C728.429 258.625 728.374 258.679 728.317 258.731C724.841 261.844 718.165 263.096 717.782 268.823C717.431 274.06 721.325 275.223 722.104 278.876C722.171 283.817 674.969 340.921 667.343 348.754C661.624 354.627 649.494 366.257 641.043 366.328C640.342 366.334 639.702 366.042 639.095 365.72C638.135 364.619 637.803 363.678 637.896 362.202C638.95 345.379 693.804 286.322 692.969 279.589C685.104 280.094 677.17 279.506 669.293 279.667C669.172 282.633 665.333 288.406 663.257 290.329C662.959 290.606 662.626 290.849 662.291 291.077L661.573 290.685C660.509 286.98 659.551 282.593 655.93 280.548C651.198 277.874 644.247 279.397 639.341 280.85C619.491 286.727 602.524 303.697 592.827 321.678C586.552 333.312 578.684 350.253 582.815 363.6C583.626 366.219 585.198 368.359 587.651 369.645C591.107 371.457 595.104 371.266 598.718 370.093C606.446 367.583 625.561 353.694 629.223 346.459C629.547 345.818 629.644 345.053 629.712 344.346L629.755 344.543C631.491 352.881 620.827 362.339 631.346 369.083C633.048 370.174 635.456 370.537 637.006 371.706C661.513 368.112 681.467 341.614 695.38 322.92C700.483 316.064 726.006 284.51 727.125 279.839C729.898 280.874 732.854 281.986 734.134 284.904C735.31 287.583 734.597 290.615 733.513 293.199C726.505 309.895 686.341 345.395 693.713 363.198C695.038 366.396 697.894 368.449 701.026 369.68C707.357 372.167 714.976 371.452 721.112 368.732C739.413 360.62 756.821 335.44 769.059 319.842C770.72 317.724 773.728 312.737 775.918 311.752C773.973 317.41 744.669 358.709 739.17 365.592C737.564 367.603 735.953 369.696 733.696 371.009C738.991 370.951 754.522 371.912 758.706 370.75C766.079 366.237 776.238 342.99 782.159 334.762C790.838 322.704 829.496 281.22 844.564 284.765C845.171 284.908 846.072 285.378 846.365 285.932C847.134 287.383 846.906 288.774 846.41 290.288C844.667 295.609 839.694 301.429 834.622 303.851C832.272 304.973 829.655 305.316 827.186 304.358C824.136 303.173 822.271 300.171 819.161 299.211L818.394 299.55C818.154 300.973 818.448 302.217 819.278 303.411C820.586 305.291 823.936 307.701 824.368 309.832Z"/>
	<path fill="#F0BE5F" d="M499.742 11.2037L526.24 11.2152C524.985 15.6915 517.755 18.3586 516.26 24.8962C514.631 32.0204 515.775 41.1841 515.813 48.5618C515.92 69.3549 517.112 93.3339 515.528 113.689C514.796 123.096 513.333 137.605 505.792 144.049C512.362 144.669 519.117 146.488 525.45 148.304C551.067 155.648 572.45 167.356 593.826 183.14C596.983 185.47 602.451 188.36 604.338 191.765C603.778 193.721 602.108 194.036 600.213 194.356C595.411 195.165 590.337 194.758 585.478 195.379C577.414 196.409 567.308 204.036 561.086 209.315C533.237 232.947 512.868 277.48 504.585 312.488C502.799 320.038 501.391 327.671 499.58 335.218C498.849 338.264 498.438 341.923 496.058 344.161C497.186 343.425 498.312 342.687 499.139 341.605C503.57 335.804 506.864 328.768 510.45 322.425C515.243 313.918 520.357 305.597 525.782 297.479C543.19 270.909 564.176 246.865 588.146 226.025C612.251 205.164 639.171 189.57 668.64 177.662C675.561 174.866 688.88 172.343 694.185 169.193C694.296 169.127 694.406 169.058 694.516 168.99C688.597 168.033 681.301 168.982 675.304 169.162C675.994 168.938 676.673 168.685 677.342 168.404C682.386 166.265 687.11 162.421 689.185 157.237C692.501 148.954 690.88 96.6349 690.881 85.1037C690.883 68.4782 691.647 51.5736 690.733 34.9787C690.503 30.8125 690.464 26.1214 688.755 22.2681C686.469 17.1161 681.771 13.2067 676.574 11.2461L798.822 11.3369C800.162 12.638 800.52 14.7191 800.869 16.4758C801.884 21.5811 803.686 32.7558 800.665 37.2705C800.763 36.4665 800.841 35.6562 800.837 34.8453C800.82 31.0293 797.786 26.2495 795.131 23.6202C791.137 19.6649 785.896 17.0778 780.433 15.8868C771.68 13.9784 761.704 14.9657 752.741 14.9965L711.906 15.0823C711.949 15.1797 711.989 15.278 712.034 15.3745C713.641 18.8328 713.523 84.0126 712.186 88.7717C723.872 88.7282 735.558 88.7607 747.244 88.869C754.385 88.9441 761.882 89.4955 768.963 88.54C773.087 87.9834 777.384 86.9063 780.85 84.4979C783.104 82.9322 785.148 80.452 785.669 77.712C786.113 78.2727 786.453 78.8681 786.647 79.562C788.148 84.9345 788.358 97.9777 785.512 102.757C785.297 100.906 783.734 98.9423 782.442 97.6455C779.668 94.86 775.353 93.3858 771.558 92.7163C764.267 91.4298 756.343 92.0146 748.944 92.0298L711.902 92.2104C712.174 92.6803 712.405 93.1712 712.536 93.7004C713.655 98.2174 713.228 155.494 712.764 162.146C712.688 163.24 712.418 164.09 711.862 165.039C724.261 164.838 736.648 161.626 749.121 161.282C759.116 161.007 768.789 163.649 778.648 163.735C784.594 163.787 789.901 161.429 794.087 157.242C797.089 154.241 801.584 147.94 801.569 143.578C803.648 150.952 801.819 162.4 799.435 169.448C807.316 172.231 818.06 176.883 823.82 182.989C824.926 184.161 825.536 185.044 825.479 186.656L824.257 187.351C819.362 185.735 809.406 178.709 803.667 175.999C796.85 172.779 788.687 170.625 781.255 169.597C768.827 167.878 733.199 168.001 720.869 169.938C713.644 171.073 706.676 173.277 699.866 175.897C693.578 178.316 687.264 181.004 681.393 184.324C676.323 187.192 670.935 191.298 665.482 193.221L665.308 193.281C663.618 195.356 649.451 205.488 646.099 208.235C635.14 217.214 625.138 228.691 616.721 240.048C605.214 255.574 595.21 272.468 585.781 289.316C572.608 312.853 560.098 338.237 540.823 357.481C526.635 371.646 509.25 382.854 489.343 386.758C486.168 387.38 482.71 388.223 479.466 388.17C477.848 388.144 475.962 388.149 474.751 386.931C474.747 383.621 482.837 382.812 485.522 382.124C487.476 381.623 489.198 380.739 490.977 379.815C523.659 362.859 544.352 318.893 564.874 289.699C579.848 268.397 595.592 247.929 613.732 229.203C625.541 217.013 638.71 205.361 652.809 195.886C656.768 193.225 660.833 190.638 664.986 188.291C670.468 185.192 682.471 180.091 686.35 175.75C682.958 177.756 678.17 178.965 674.436 180.383C668.39 182.672 662.419 185.156 656.533 187.831C629.932 199.815 606.255 215.752 584.621 235.286C562.909 254.889 543.083 278.632 527.187 303.164C523.799 308.368 520.525 313.644 517.368 318.991C513.966 324.838 499.091 353.766 496.227 355.74L495.066 355.311C493.496 353.617 492.843 351.693 492.347 349.486C490.58 341.629 490.623 332.69 490.788 324.663C491.687 280.896 511.568 233.347 547.212 206.681C554.705 201.076 561.85 197.74 570.429 194.116C571.874 193.505 574.476 192.708 575.299 191.303C575.335 191.24 575.365 191.174 575.398 191.109C566.884 193.671 558.934 195.002 550.847 199.092C541.029 204.056 531.639 211.883 523.71 219.44C498.754 243.225 481.055 272.727 464.062 302.397C455.511 317.33 447.247 332.254 437.33 346.341C417.034 375.174 388.1 395.121 353.201 401.169C324.169 406.2 290.951 403.693 266.297 386.234C250.409 374.982 240.322 357.774 237.128 338.67C232.197 309.183 241.321 280.248 258.461 256.243C280.185 225.817 309.959 208.865 346.483 202.752C358.682 183.51 373.081 167.727 393.61 157.197C399.267 154.295 406.715 152.792 411.783 149.092C411.887 149.016 411.989 148.937 412.093 148.86C412.093 146.179 407.71 140.299 406.332 137.755C402.999 131.603 400.352 124.959 399.11 118.045C395.433 97.5673 401.106 34.675 395.576 22.1376C393.605 17.6711 389.056 15.5323 386.436 11.6624C386.383 11.5843 386.332 11.5049 386.28 11.4262C401.013 10.8172 415.929 11.3187 430.685 11.2158C429.685 15.3279 421.9 18.4238 420.309 24.8054C418.038 33.9099 419.582 52.9898 419.614 63.2363C419.674 81.8433 418.404 101.3 420.562 119.787C421.266 125.819 428.491 141.261 428.204 144.562C451.143 140.912 479.352 137.121 502.083 143.159C504.373 141.692 505.96 138.299 507.075 135.901C509.432 130.833 511.071 125.035 511.752 119.487C513.35 106.459 514.549 30.9573 511.004 21.6796C509.135 16.7887 504.407 13.1943 499.742 11.2037ZM417.407 154.466C417.346 154.512 417.286 154.559 417.223 154.603C413.102 157.541 406.916 159.113 402.328 161.562C384.748 170.946 369.08 184.667 359.307 202.19C381.864 202.586 403.035 208.208 423.795 216.757C427.835 218.421 433.898 220.378 436.983 223.593C437.321 223.946 437.502 224.335 437.667 224.788C437.699 224.877 437.735 224.965 437.767 225.054C437.839 225.25 437.896 225.452 437.952 225.653C428.665 223.828 420.523 219.694 411.566 216.906C393.158 211.178 373.813 210.049 354.661 210.221C347.781 231.237 342.144 250.617 352.885 271.698C359.38 284.444 370.135 293.802 383.793 298.168C398.153 302.759 414.901 301.725 428.358 294.77C432.303 292.714 435.973 290.169 439.28 287.195C442.4 284.369 447.937 276.514 451.384 275.268C451.906 276.541 451.81 277.137 451.27 278.422C446.514 289.743 431.617 300.996 420.592 305.136C404.606 311.141 386.375 309.562 370.99 302.494C356.544 295.859 344.913 284.066 339.428 269.029C332.479 249.98 335.466 230.912 341.911 212.355C334.398 214.608 326.535 216.596 319.356 219.769C289.971 233.036 263.893 258.924 252.416 289.29C244.455 310.35 242.505 335.395 251.911 356.317C259.624 373.474 273.785 385.822 291.222 392.36C312.864 400.475 336.218 397.949 356.961 388.473C381.987 377.04 402.236 357.538 419.696 336.681C460.446 288.002 516.5 175.872 592.336 187.888C590.877 183.339 566.921 170.023 561.898 167.434C548.393 160.473 518.161 147.778 502.973 148.53C500.661 154.911 490.785 160.869 484.913 163.628C470.336 170.476 451.17 170.089 436.089 164.619C429.415 162.198 423.498 156.464 417.407 154.466ZM431.354 149.988L431.512 150.057C434.679 151.471 437.287 154.06 440.124 156.033C447.866 161.417 459.307 166.584 468.922 163.485C478.762 162.154 491.5 157.895 497.705 149.592C498.19 148.943 498.426 148.385 498.494 147.568C486.101 145.189 473.395 144.991 460.83 145.825C450.963 146.903 441.133 148.291 431.354 149.988Z"/>
	<path fill="#F0BE5F" d="M728.485 258.573C731.824 262.049 731.704 270.441 733.973 275.047C736.025 279.214 740.21 282.064 742.233 286.292C753.243 309.298 718.205 340.705 711.279 361.439C710.614 363.429 710.212 364.986 711.189 366.935C711.828 367.247 712.369 367.369 713.082 367.278C715.486 366.972 718.071 365.375 720.167 364.216C741.345 352.499 755.232 328.661 770.364 310.445C778.052 301.189 786.553 292.677 794.248 283.449C800.494 275.959 805.921 267.802 811.873 260.08C827.767 239.461 855.253 208.598 882.684 205.175C888.791 204.413 896.884 204.547 901.948 208.59C904.104 210.312 905.437 212.703 905.685 215.459C907.943 240.472 832.249 267.603 815.506 280.909C807.067 287.615 805.349 297.774 798.94 305.647C797.758 309.186 794.669 312.66 791.619 314.745C795.632 312.88 798.998 309.598 801.917 306.328L802.087 305.577C804.368 304.757 806.798 301.95 808.609 300.321C817.812 292.038 827.99 282.634 840.494 280.03C845.226 279.044 850.961 279.154 855.102 281.955C857.15 283.34 858.214 285.07 858.671 287.481C859.523 291.968 857.803 296.198 855.271 299.846C850.195 307.16 841.894 310.31 833.455 311.801C836.928 329.491 812.304 356.573 813.018 364.395C813.105 365.353 813.422 365.424 814.129 365.994C815.6 366.338 816.952 366.549 818.46 366.324C831.351 364.401 851.057 340.017 858.582 329.914C862.999 323.984 866.866 317.66 871.21 311.678C881.766 297.139 898.965 282.731 917.11 279.932C922.366 279.121 930.27 279.055 934.72 282.438C936.169 283.539 937.075 285.003 937.256 286.826C937.772 292.012 933.144 298.42 930.033 302.186C918.564 316.068 899.131 326.655 881.082 328.32C881.289 332.787 867.892 348.351 866.151 356.011C865.647 358.232 865.47 361.542 866.826 363.519C867.903 365.089 870.135 365.812 871.919 366.093C883.897 367.98 895.165 363.02 904.673 356.134C912.366 350.564 919.239 343.565 925.662 336.605C931.525 330.254 969.573 283.502 970.269 279.087C970.033 275.436 965.032 273.143 965.803 267.786C966.497 262.969 973.001 261.242 976.325 258.731C976.396 258.678 976.465 258.622 976.536 258.567C979.571 261.512 979.68 268.42 981.132 272.411C982.785 276.953 986.545 280.935 989.175 284.967C1004.15 307.916 962.41 342.634 958.519 362.848C958.268 364.149 958.22 365.217 958.984 366.351C959.724 366.834 960.401 367.208 961.31 367.185C976.393 366.809 1010.04 321.197 1020.39 309.44C1027.57 301.275 1040.06 289.536 1045.92 281.141C1050.48 274.609 1050.44 265.79 1055.93 259.85C1058.65 256.913 1063.44 252.308 1067.64 252.155C1068.24 252.479 1068.87 252.683 1069.22 253.293C1070.17 254.965 1069.87 256.904 1069.35 258.676C1067.52 264.926 1060.13 275.633 1054.45 278.745C1057.41 284.384 1060.5 320.365 1060.51 328.139C1060.51 331.74 1060.07 335.328 1059.21 338.824C1057.3 346.384 1052.77 355.312 1045.88 359.436C1060.78 354.686 1079.97 326.785 1085.07 325.501L1085.91 326.302C1086.12 327.037 1086.16 327.661 1085.95 328.394C1083.33 337.48 1057.85 359.295 1048.9 363.955C1036.12 370.608 1014.39 374.46 1000.47 370.035C994.985 368.292 990.66 365.319 989.23 359.427C988.802 357.662 988.617 355.704 987.753 354.093C987.713 354.019 987.67 353.948 987.628 353.875C985.055 359.329 977.269 364.559 972.06 367.264C965.598 370.62 956.514 372.633 949.408 370.259C946.512 369.291 944.197 367.406 942.872 364.629C933.138 344.239 975.346 310.773 981.887 292.151C982.748 289.7 983.109 286.903 981.883 284.504C980.528 281.853 977.455 280.735 974.786 279.88C974.82 280.25 974.836 280.66 974.738 281.022C973.323 286.251 962.744 297.643 958.954 302.38C940.807 325.066 923.614 352.572 896.815 366.025C887.517 370.693 876.878 372.781 866.791 369.386C848.388 363.192 858.004 348.105 854.564 341.813C854.516 341.724 854.462 341.638 854.412 341.551C853.346 345.963 845.886 352.39 842.601 355.495C833.638 363.964 823.625 371.487 810.702 371.079C805.392 370.911 799.839 369.609 796.122 365.539C783.653 351.887 824.072 322.293 824.364 310.199C824.367 310.076 824.367 309.954 824.368 309.832C823.936 307.701 820.586 305.291 819.278 303.411C818.448 302.217 818.154 300.973 818.394 299.55L819.161 299.211C822.271 300.171 824.136 303.173 827.186 304.358C829.655 305.316 832.272 304.973 834.622 303.851C839.694 301.429 844.667 295.609 846.41 290.288C846.906 288.774 847.134 287.383 846.365 285.932C846.072 285.378 845.171 284.908 844.564 284.765C829.496 281.22 790.838 322.704 782.159 334.762C776.238 342.99 766.079 366.237 758.706 370.75C754.522 371.912 738.991 370.951 733.696 371.009C735.953 369.696 737.564 367.603 739.17 365.592C744.669 358.709 773.973 317.41 775.918 311.752C773.728 312.737 770.72 317.724 769.059 319.842C756.821 335.44 739.413 360.62 721.112 368.732C714.976 371.452 707.357 372.167 701.026 369.68C697.894 368.449 695.038 366.396 693.713 363.198C686.341 345.395 726.505 309.895 733.513 293.199C734.597 290.615 735.31 287.583 734.134 284.904C732.854 281.986 729.898 280.874 727.125 279.839C726.006 284.51 700.483 316.064 695.38 322.92C681.467 341.614 661.513 368.112 637.006 371.706C635.456 370.537 633.048 370.174 631.346 369.083C620.827 362.339 631.491 352.881 629.755 344.543L629.712 344.346C629.644 345.053 629.547 345.818 629.223 346.459C625.561 353.694 606.446 367.583 598.718 370.093C595.104 371.266 591.107 371.457 587.651 369.645C585.198 368.359 583.626 366.219 582.815 363.6C578.684 350.253 586.552 333.312 592.827 321.678C602.524 303.697 619.491 286.727 639.341 280.85C644.247 279.397 651.198 277.874 655.93 280.548C659.551 282.593 660.509 286.98 661.573 290.685L662.291 291.077C662.626 290.849 662.959 290.606 663.257 290.329C665.333 288.406 669.172 282.633 669.293 279.667C677.17 279.506 685.104 280.094 692.969 279.589C693.804 286.322 638.95 345.379 637.896 362.202C637.803 363.678 638.135 364.619 639.095 365.72C639.702 366.042 640.342 366.334 641.043 366.328C649.494 366.257 661.624 354.627 667.343 348.754C674.969 340.921 722.171 283.817 722.104 278.876C721.325 275.223 717.431 274.06 717.782 268.823C718.165 263.096 724.841 261.844 728.317 258.731C728.374 258.679 728.429 258.625 728.485 258.573ZM997.339 343.361C997.323 343.441 997.31 343.522 997.292 343.601C996.016 349.195 989.46 353.393 993.822 360.767C995.913 364.303 1000.85 366.247 1004.69 367.132C1010.2 368.444 1016 367.462 1020.76 364.413C1034.82 355.492 1040.41 336.724 1043.77 321.317C1045.73 312.318 1049.53 296.936 1047.52 287.927C1047.15 287.453 1046.83 286.981 1046.34 286.625C1042.15 293.49 1010.15 329.814 1004.62 334.406C1009.65 334.557 1015.4 334.824 1019.08 338.804C1021.64 341.581 1023.69 346.394 1023.46 350.169C1023.43 350.827 1023.21 351.411 1022.92 351.998L1022.03 352.514C1015.36 348.59 1019.77 335.176 1004.99 339.035C1001.89 339.846 999.771 341.365 997.339 343.361ZM596.259 366.108C612.991 362.447 634.579 334.885 643.597 320.795C648.135 313.705 659.017 296.636 657.075 288.395C656.717 286.879 655.864 285.766 654.519 284.996C653.28 284.287 651.944 284 650.527 283.949C631.201 293.225 599.668 338.915 592.506 359.426C591.792 361.47 591.228 363.47 591.367 365.659C591.681 366.241 591.773 366.775 592.445 366.963C593.347 367.214 595.345 366.786 596.101 366.251C596.159 366.21 596.206 366.156 596.259 366.108ZM817.256 274.397C820.277 273.396 824.807 271.628 826.908 269.169C836.336 265.875 845.085 260.168 853.821 255.377C867.597 247.823 893.151 236.892 900.137 222.271C901.298 219.842 902.026 216.944 901.126 214.313C900.567 212.68 899.423 211.537 897.869 210.818C894.654 209.33 890.381 209.636 886.953 210.085C882.955 211.283 878.475 212.594 874.774 214.548C857.018 223.921 839.588 244.741 827.981 260.636C825.164 264.494 821.506 272.138 817.256 274.397ZM883.537 323.618C886.124 323.338 890.559 323.163 892.729 321.582C907.068 317.903 924.016 305.196 931.626 292.284C932.595 290.64 933.496 288.959 932.947 287.017C932.794 286.477 932.134 285.852 931.655 285.568C929.251 284.139 925.439 284.63 922.772 285.019C917.175 288.212 911.994 291.815 907.458 296.431C901.793 302.198 888.462 321.042 883.537 323.618ZM1058.39 267.597C1060.79 266.249 1064.45 262.543 1065.18 259.84C1065.29 259.43 1065.35 259.022 1065.39 258.6L1064.49 257.721C1062.62 260.001 1058.25 264.496 1058.37 267.501C1058.37 267.533 1058.38 267.565 1058.39 267.597Z"/>
	<path fill="#2B396F" fill-opacity="0.015686275" d="M1064.49 257.721L1065.39 258.6C1065.35 259.022 1065.29 259.43 1065.18 259.84C1064.45 262.543 1060.79 266.249 1058.39 267.597C1058.38 267.565 1058.37 267.533 1058.37 267.501C1058.25 264.496 1062.62 260.001 1064.49 257.721Z"/>
	<path fill="#F0BE5F" d="M149.369 11.2281L184.325 11.1858C181.043 13.5267 177.463 15.8613 174.881 18.9925C173.041 21.2229 172.091 23.4669 171.769 26.3203C170.822 34.7108 171.328 43.3822 171.354 51.817L171.342 91.5628L171.255 128.956C171.205 136.686 170.711 144.788 171.514 152.479C172.324 160.226 178.471 164.406 184.058 168.918C168.083 168.836 151.884 168.276 135.935 169.045C138.573 167.155 141.38 165.288 143.679 162.991C146.244 160.428 147.942 157.442 148.593 153.844C150.792 141.679 149.414 125.892 149.383 113.343L149.297 36.2631C149.321 31.3108 149.371 26.3587 149.448 21.407C143.446 33.1484 139.005 46.1884 133.814 58.3351C118.416 94.9911 103.274 131.754 88.3896 168.622C81.8987 157.158 77.4349 144.333 72.1349 132.266L37.2207 51.3762C32.7544 41.0998 28.7832 30.5887 23.9142 20.4935C24.3271 51.2156 23.5912 81.9585 23.5197 112.686C23.4894 125.695 22.2558 141.126 24.2665 153.763C25.451 161.207 29.5902 164.585 35.4003 168.779C26.4974 168.972 17.5877 168.631 8.68838 169.036C10.84 167.272 13.1109 165.528 15.0948 163.578C20.605 158.164 20.2741 151.638 20.3701 144.465C20.6946 120.228 20.2312 95.9542 20.3239 71.7109C20.3586 62.6354 21.6948 30.7863 19.7903 23.458C18.5809 18.8048 13.4098 14.6996 10.1559 11.3568C21.3977 11.1923 32.6413 11.1732 43.8836 11.2996C62.4041 52.4331 80.5804 93.9251 98.1053 135.493C116.32 94.5919 131.577 52.3258 149.369 11.2281Z"/>
	<path fill="#F0BE5F" d="M352.312 11.2433L378.284 11.2115C374.551 14.2344 370.069 17.2513 368.325 21.9264C365 30.836 366.491 48.6619 366.517 58.4294L366.62 128.377C366.666 139.332 367.409 150.395 366.971 161.333C366.88 163.61 366.818 166.081 365.766 168.149C365.105 168.563 364.639 169.034 363.828 168.947C361.35 168.681 358.93 164.729 357.517 162.915C347.422 148.676 336.623 134.811 326.168 120.823L285.593 65.8929C276.949 54.217 267.541 42.8091 259.534 30.7099L259.504 111.305C259.473 124.901 258.306 139.07 259.937 152.573C260.933 160.819 265.386 164.17 271.488 168.939C262.677 168.905 253.865 168.951 245.054 169.075C248.751 165.76 253.417 162.176 254.982 157.266C256.006 154.052 256.139 150.326 256.269 146.97C257.155 124.016 256.267 100.733 256.271 77.7425C256.273 65.6444 257.517 43.7496 255.625 32.8845C254.166 24.5028 249.377 18.6672 245.623 11.3255C254.691 11.2197 263.759 11.2161 272.826 11.3149L363.279 133.192L363.365 63.8086C363.394 53.3926 364.23 42.8522 363.653 32.4593C363.074 22.015 359.823 17.9964 352.312 11.2433Z"/>
	<path fill="#F0BE5F" d="M533.203 11.5059C537.833 10.7743 543.114 11.1792 547.809 11.1939L573.489 11.2608L668.683 11.2517C670.292 12.8531 670.673 15.5686 671.114 17.7035C672.23 23.0937 673.635 32.1464 670.44 36.9869C670.643 36.1638 670.858 35.2812 670.874 34.431C670.942 30.7769 666.502 25.5284 664.021 23.1016C652.346 11.6839 627.713 14.9745 612.465 15.1656C612.564 15.3278 612.618 15.4102 612.71 15.5914C613.716 17.5888 613.581 20.3584 613.634 22.5384C613.928 34.8209 613.382 47.2251 613.378 59.5241L613.423 113.522C613.426 118.729 613.928 136.249 612.809 139.967C615.285 143.176 613.017 152.224 614.219 156.554C615.828 162.355 621.997 163.665 624.282 168.474C624.338 168.59 624.389 168.708 624.442 168.825C620.312 169.491 615.341 168.984 611.125 168.951C599.544 168.858 587.686 168.214 576.141 169.084C577.658 168.641 579.108 167.993 580.45 167.158C584.952 164.415 589.13 160.27 590.314 154.938C591.893 147.829 591.287 139.365 591.284 132.107L591.246 100.374L591.107 53.1678C591.13 42.205 591.466 31.1897 590.992 20.2346C590.913 18.4149 590.99 16.6682 589.966 15.0839C574.335 14.9416 549.206 11.6059 538.418 24.9509C534.795 29.4339 534.277 34.8722 529.54 38.7255C530.219 38.0054 530.765 37.249 531.093 36.304C532.661 31.7882 535.358 15.8621 533.203 11.5059Z"/>
	<path fill="#F0BE5F" d="M190.79 11.2631L237.977 11.2152C234.577 13.3922 231.047 15.6116 228.474 18.784C226.737 20.9241 225.514 23.4182 225.146 26.162C224.304 32.4576 224.634 39.2493 224.545 45.6045C224.329 58.2584 224.234 70.9141 224.258 83.5698L224.235 124.121C224.246 133.496 223.99 143.091 224.954 152.423C225.755 160.176 231.643 164.19 237.223 168.741C231.966 169.802 225.521 169.195 220.139 169.181L189.767 169.091C192.72 166.751 195.835 164.417 198.295 161.546C200.189 159.335 201.616 156.842 202.063 153.937C203.133 146.989 202.739 139.663 202.728 132.648L202.719 102.07L202.959 53.8935C202.931 46.5021 203.178 38.9561 202.621 31.5873C201.814 20.9299 198.476 17.8635 190.79 11.2631Z"/>
	<path fill="#2B396F" fill-opacity="0.039215688" d="M798.94 305.647C800.017 305.73 801.023 305.843 802.087 305.577L801.917 306.328C798.998 309.598 795.632 312.88 791.619 314.745C794.669 312.66 797.758 309.186 798.94 305.647Z"/>
</svg>
