<?xml version="1.0" encoding="utf-8" ?>
<svg xmlns="http://www.w3.org/2000/svg" xmlns:xlink="http://www.w3.org/1999/xlink" width="1024" height="1024">
	<path fill="#0C315A" d="M862.134 200.057C862.998 199.875 863.86 199.813 864.742 199.912C866.41 200.099 867.877 201.294 868.873 202.586C869.983 204.027 870.838 206.309 870.486 208.147C870.038 210.487 868.409 211.577 866.652 212.98C856.843 220.818 845.879 227.691 835.602 234.928L768.878 281.693C695.08 333.746 621.01 385.412 546.669 436.689L546.601 440.243C546.317 452.168 542.094 463.299 533.269 471.566C525.038 479.277 513.465 483.375 502.24 482.897C490.791 482.409 480.762 477.608 473.042 469.13C463.786 458.966 461.588 446.967 462.256 433.608C450.082 420.141 436.753 407.459 424.152 394.36L318.836 285.38C310.852 276.242 283.262 252.455 281.218 242.604C280.829 240.729 280.858 238.668 281.98 237.038C282.883 235.728 284.224 234.776 285.815 234.544C287.721 234.267 290.157 234.736 291.773 235.768C299.557 240.742 306.774 247.211 314.039 252.929L349.56 280.711L449.227 358.559C465.172 370.876 480.802 384.08 497.293 395.632C508.39 394.267 519.138 396.129 528.279 402.941C596.332 360.537 664.619 318.51 733.137 276.862C763.617 257.786 794.389 239.182 825.442 221.056C836.923 214.347 850.116 205.185 862.134 200.057ZM505.232 456.068C514.642 455.538 521.873 447.534 521.448 438.119C521.024 428.703 513.101 421.383 503.682 421.702C497.494 421.911 491.896 425.43 489.024 430.916C486.152 436.401 486.45 443.007 489.804 448.211C493.158 453.416 499.05 456.417 505.232 456.068Z"/>
	<path fill="#C61D1A" d="M123.968 561.658C126.677 561.359 129.885 561.44 132.538 562.081C137.815 563.356 140.55 566.614 143.137 571.067C144.332 569.838 145.577 568.639 146.956 567.618C153.203 562.99 161.391 560.578 169.137 561.935C172.921 562.598 176.654 564.324 178.876 567.575C180.962 570.626 181.224 574.485 181.067 578.078C180.698 586.516 178.226 595.376 176.307 603.57C172.932 617.982 169.096 632.426 166.583 647.013C158.924 647.001 151.265 647.109 143.609 647.336L152.279 607.76C153.755 600.992 156.988 590.884 156.587 584.117C156.506 582.749 155.976 581.362 154.774 580.597C153.581 579.838 151.859 579.782 150.517 580.088C146.836 580.929 144.312 584.461 142.725 587.646C137.825 597.476 133.61 624.471 130.882 636.899C130.242 639.817 129.773 644.224 128.274 646.766L127.125 647.035L106.015 647.148C108.148 635.821 119.711 590.696 117.641 582.443C117.244 580.862 116.492 580.449 115.188 579.715C112.951 579.567 111.42 580.133 109.607 581.465C107.074 583.326 105.296 585.937 104.078 588.807C101.426 595.056 100.451 602.823 98.9497 609.481C96.1439 621.924 92.941 634.465 90.9263 647.059C83.1113 647.201 75.275 647.059 67.4579 647.035C73.2035 618.92 80.4386 591.127 86.3055 563.047C93.9113 562.902 101.536 562.994 109.144 562.978C108.278 565.705 107.153 568.351 106.096 571.009C111.307 565.553 116.461 562.857 123.968 561.658Z"/>
	<path fill="#C61D1A" d="M540.725 570.788C541.541 570.05 542.378 569.334 543.234 568.642C549.067 563.949 557.857 560.567 565.407 561.592C569.543 562.153 573.999 563.629 576.495 567.176C578.58 570.141 579.117 573.602 579.06 577.153C578.913 586.233 575.974 595.951 573.97 604.79C570.787 618.836 567.43 632.915 564.937 647.104L542.174 647.03C544.692 633.702 547.367 620.404 550.2 607.139C551.652 600.098 554.053 592.202 554.1 585.046C554.11 583.484 553.881 581.942 552.588 580.881C551.524 580.008 549.999 579.796 548.665 579.947C545.13 580.346 542.591 583.713 541.104 586.646C537.114 594.514 535.956 604.799 534.082 613.42C532.312 621.401 530.478 629.367 528.58 637.317C527.944 640.043 527.536 644.754 525.949 646.936L523.291 647.071L504.188 647.078L511.842 610.802C513.354 603.55 515.459 595.632 515.946 588.252C516.084 586.164 516 583.819 514.998 581.928C514.39 580.781 513.421 579.904 512.125 579.621C510.88 579.35 509.512 579.792 508.435 580.414C506.093 581.769 504.218 584.03 503.065 586.456C499.315 594.345 498.109 604.202 496.284 612.747C493.842 624.2 491.329 635.637 488.745 647.058C481.157 647.052 473.058 646.409 465.553 647.339C467.193 636.3 470.335 625.11 472.827 614.233L484.342 562.996L506.83 562.943C505.908 565.672 504.972 568.397 504.022 571.116C509.296 566.248 513.939 563.174 521.06 561.596C523.976 561.406 527.124 561.515 529.977 562.168C535.177 563.358 538.017 566.482 540.725 570.788Z"/>
	<path fill="#C61D1A" d="M717.221 535.018L739.974 534.991C735.943 553.49 732.188 572.11 727.692 590.498C734.408 580.962 742.165 572.077 749.561 563.065C758.924 562.577 768.341 563.008 777.716 562.957C767.229 573.524 757.433 584.828 747.152 595.603C751.264 609.679 754.637 624.214 758.177 638.454L760.628 647.021C752.441 647.089 744.254 647.079 736.068 646.99C733.273 636.198 732.051 624.931 728.89 614.251C727.029 616.107 724.81 618.037 723.359 620.229C718.652 627.339 717.919 638.754 716.152 647.076L692.944 647.078C697.092 626.851 701.423 606.662 705.937 586.513C709.611 569.34 712.968 552.058 717.221 535.018Z"/>
	<path fill="#C61D1A" d="M617.877 561.787C620.509 561.595 623.077 561.586 625.714 561.751C632.714 562.189 640.838 563.531 645.614 569.215C647.884 571.917 648.753 574.922 648.861 578.408C649.056 584.689 647.072 591.287 645.732 597.39L639.239 626.87C637.854 633.225 636.107 639.78 635.615 646.272L635.563 647.018L613.18 647.099L614.336 640.566C610.65 644.214 607.089 646.755 602.033 648.134C595.718 649.858 588.21 649.734 582.535 646.218C578.237 643.555 576.093 639.697 575.027 634.865C574.534 628.822 575.723 622.34 578.211 616.81C586.286 598.865 602.268 601.554 617.354 595.542C621.208 594.006 624.678 591.452 626.234 587.46C626.942 585.641 627.09 583.589 626.252 581.784C625.516 580.197 624.118 579.066 622.494 578.472C620.014 577.565 617.115 577.868 614.771 579.027C610.311 581.233 609.012 585 607.473 589.374C600.799 589.76 594.131 589.441 587.445 589.927C588.936 583.654 590.384 576.866 594.504 571.709C600.374 564.361 609.064 562.605 617.877 561.787ZM601.103 629.8C603.928 631.036 606.685 631.542 609.628 630.339C613.784 628.641 616.254 624.681 617.842 620.675C619.046 617.636 621.148 611.188 620.912 608.018C620.719 608.131 620.528 608.247 620.334 608.358C613.691 612.126 601.474 612.392 598.945 621.223C598.295 623.49 598.749 626.386 599.988 628.377C600.312 628.896 600.686 629.355 601.103 629.8Z"/>
	<path fill="#C61D1A" d="M803.792 561.668C807.695 561.251 811.635 561.34 815.515 561.935C822.057 562.928 828.728 565.018 832.675 570.727C839.928 581.219 833.942 599.043 831.609 610.586L790.708 610.5C789.317 615.541 787.26 622.91 789.489 627.898C790.271 629.647 791.671 631.12 793.518 631.72C795.636 632.409 797.932 631.814 799.833 630.784C804.256 628.388 805.945 624.478 807.353 619.95L828.955 620.003L827.234 626.122C825.845 629.303 824.431 632.454 822.492 635.347C817.665 642.548 810.311 646.488 801.957 648.111C792.778 649.893 781.414 649.909 773.47 644.309C768.997 641.155 766.312 636.385 765.461 631.022C763.459 618.417 771.762 585.593 779.37 575.293C785.677 566.754 793.528 563.189 803.792 561.668ZM793.691 595.32L802.773 595.376C805.747 595.367 808.751 595.269 811.72 595.38C812.419 591.392 814.367 584.712 812.207 581.057C811.467 579.805 810.037 578.851 808.617 578.57C807.28 578.307 805.773 578.483 804.416 578.545C800.087 580.437 797.659 583.04 795.951 587.471C794.982 589.984 794.322 592.706 793.691 595.32Z"/>
	<path fill="#C61D1A" d="M441.509 561.657C445.494 561.35 450.049 561.829 453.974 562.606C459.801 563.761 465.49 566.335 468.808 571.489C475.573 581.996 469.84 599.279 467.532 610.699C453.911 610.285 440.189 610.573 426.556 610.505C425.587 615.256 423.895 622.561 425.279 627.311C425.783 629.039 426.852 630.686 428.534 631.457C430.678 632.439 433.525 631.61 435.513 630.607C440.219 628.23 441.731 624.466 443.349 619.804C450.693 620.084 458.072 619.959 465.422 619.962C464.57 622.553 463.599 625.097 462.639 627.65C461.336 630.544 459.956 633.371 458.081 635.947C452.991 642.942 445.075 647.03 436.604 648.245C427.373 649.57 415.831 649.431 408.14 643.388C403.947 640.093 401.702 635.259 401.18 630.015C400.198 620.15 407.161 592.591 411.094 583.125C412.492 579.686 414.383 576.468 416.707 573.572C423.323 565.438 431.373 562.711 441.509 561.657ZM430.106 595.341L436.375 595.35C440.127 595.361 443.956 595.21 447.698 595.438C448.383 591.437 450.543 583.979 447.803 580.413C446.434 578.632 444.239 578.274 442.139 578.121C437.916 579.381 435.254 581.039 433.2 585.068C431.576 588.254 430.868 591.874 430.106 595.341Z"/>
	<path fill="#C61D1A" d="M340.093 562.907L363.446 562.93C361.7 571.283 359.795 579.601 357.73 587.881C353.069 607.567 349.059 627.395 344.359 647.072C336.769 646.94 329.158 647.055 321.566 647.054C322.342 644.505 323.162 641.968 324.024 639.447C322.273 641.405 320.565 643.383 318.393 644.891C312.58 648.928 305.09 650.182 298.195 648.627C294.358 647.761 290.756 645.697 288.734 642.236C286.933 639.154 286.85 635.549 287.067 632.081C287.596 623.618 290.115 614.886 291.986 606.616L302.14 562.89L325.259 562.988C322.6 572.024 321.144 581.664 319.081 590.872C316.841 600.871 313.848 611.041 312.338 621.152C312.039 623.156 311.561 625.932 312.446 627.805C313.032 629.045 313.948 629.618 315.24 629.96C317.021 630.432 319.509 629.927 321.064 628.997C323.772 627.376 325.395 624.336 326.524 621.5C329.7 613.517 330.839 603.889 332.645 595.481C334.979 584.614 337.7 573.782 340.093 562.907Z"/>
	<path fill="#C61D1A" d="M268.586 561.662C270.887 561.483 273.199 561.52 275.492 561.773C279.221 562.154 282.787 563.603 285.127 566.633C287.307 569.455 287.914 572.723 287.965 576.214C288.066 583.08 286.252 589.931 284.754 596.58L277.691 627.544C276.265 633.685 274.289 640.106 273.695 646.378C273.676 646.575 273.663 646.772 273.647 646.969C265.835 647.052 258.022 647.079 250.209 647.05C252.255 638.405 264.474 587.048 263.195 582.631C262.846 581.429 261.857 580.532 260.71 580.103C258.511 579.281 255.346 580.358 253.413 581.419C249.633 583.492 248.127 587.984 247.021 591.883C244.512 601.418 242.7 611.242 240.591 620.883C238.696 629.546 236.376 638.275 235.06 647.04C227.261 647.186 219.44 647.063 211.639 647.06C217.606 618.972 224.429 591.074 230.12 562.926C237.664 562.843 245.208 562.872 252.751 563.012L250.718 572.042C255.93 565.582 260.354 562.924 268.586 561.662Z"/>
	<path fill="#C61D1A" d="M921.637 561.701C924.725 561.139 928.437 561.439 931.555 561.681C937.811 562.165 944.316 564.09 948.418 569.129C953.463 575.328 952.632 582.547 951.78 589.91L929.86 590.027C929.906 589.099 929.93 588.17 929.932 587.24C929.94 584.116 929.567 580.975 927.134 578.723C925.943 577.62 924.421 577.086 922.798 577.188C920.346 577.343 917.965 578.831 916.494 580.758C915.366 582.236 914.603 584.298 914.977 586.173C916.059 591.602 930.281 597.971 934.902 601.523C940.097 605.516 943.646 610.391 944.368 617.074C945.123 624.073 942.714 632.491 938.235 637.962C931.835 645.78 921.755 647.992 912.222 648.977C909.183 649.041 906.192 649.045 903.168 648.695C896.875 647.964 890.322 645.768 886.36 640.538C881.682 634.361 882.482 626.312 883.48 619.13C891.219 619.797 899.32 619.403 907.104 619.476C906.749 620.899 906.513 622.379 906.317 623.833C906.002 626.164 906.383 628.932 908.066 630.725C909.118 631.846 910.727 632.388 912.24 632.368C915.127 632.33 918.076 630.852 919.98 628.709C921.214 627.32 922.339 625.207 922.055 623.28C921.097 616.792 908.112 611.143 903.092 607.483C897.927 603.718 893.32 599.004 892.451 592.377C891.584 585.769 894.265 577.943 898.318 572.696C904.138 565.162 912.653 562.739 921.637 561.701Z"/>
	<path fill="#C61D1A" d="M382.829 538.884C390.319 539.22 397.851 539.152 405.351 539.369C403.77 547.293 402.105 555.2 400.356 563.089L414.425 563.009C413.091 568.336 411.232 573.988 410.918 579.471C406.188 579.525 401.481 579.627 396.763 579.21C395.067 590.28 391.764 601.549 389.398 612.547C388.52 616.629 387.16 621.223 387.197 625.394C387.209 626.746 387.321 627.428 388.358 628.37C390.502 630.317 395.179 629.62 397.894 629.568C396.848 634.979 395.945 640.418 395.188 645.877L394.947 646.637C391.481 648.544 376.633 647.897 372.347 646.917C368.623 646.066 365.254 644.795 363.255 641.327C362.023 639.189 362.053 637.033 362.193 634.636C362.711 625.758 365.722 616.247 367.674 607.571C369.776 598.236 371.43 588.563 374.127 579.39L362.712 579.523C364.195 574.081 365.042 568.407 366.084 562.864C369.794 562.99 373.54 562.844 377.253 562.801C379.421 554.94 381.03 546.839 382.829 538.884Z"/>
	<path fill="#C61D1A" d="M892.029 561.676C893.01 561.547 894.029 561.541 895.018 561.487C894.24 569.193 891.003 579.193 889.162 586.961C883.566 586.944 877.866 586.526 872.952 589.732C870.043 591.629 868.194 594.666 866.856 597.804C864.18 604.08 863.136 611.202 861.587 617.822C859.314 627.541 856.811 637.231 854.883 647.025L831.97 647.062C832.66 644.273 833.216 641.439 833.822 638.63C838.44 613.268 845.297 588.238 850.288 562.923C857.857 562.874 865.426 562.869 872.994 562.908C871.768 566.629 870.934 570.541 869.961 574.338C876.306 566.339 881.875 563.179 892.029 561.676Z"/>
	<path fill="#C61D1A" d="M701.6 562.148L706.431 561.833C705.319 570.273 703.037 578.736 701.082 587.013C695.946 586.877 690.399 586.401 686.011 589.6C683.092 591.727 681.03 595.177 679.605 598.447C675.926 606.892 669.054 636.987 667.674 647.043L644.737 647.101L646.354 639.914L663.133 562.926C670.503 562.938 677.874 562.995 685.243 563.095C683.733 567.435 682.766 572.095 681.584 576.541C682.669 574.83 683.749 573.1 684.932 571.455C689.171 565.558 694.713 563.325 701.6 562.148Z"/>
	<path fill="#C61D1A" d="M196.474 562.961C204.24 562.889 212.006 562.872 219.772 562.909C216.127 575.47 213.702 588.536 210.876 601.307L200.491 647.022C192.979 647.099 184.946 646.422 177.527 647.381L196.474 562.961Z"/>
	<path fill="#C61D1A" d="M202.834 533.362C210.478 533.705 218.211 533.503 225.866 533.528C224.143 540.307 223.191 547.285 221.398 554.045C213.612 553.935 205.812 554.026 198.025 554.019C199.962 547.265 201.289 540.218 202.834 533.362Z"/>
</svg>
