<?xml version="1.0" encoding="utf-8" ?>
<svg xmlns="http://www.w3.org/2000/svg" xmlns:xlink="http://www.w3.org/1999/xlink" width="1024" height="1024">
	<path fill="#D41413" d="M659.058 589.308C662.675 585.278 666.55 581.394 670.886 578.136C685.699 567.006 708.295 561.512 726.586 564.276C735.641 565.644 744.099 568.901 749.605 576.656C754.565 583.641 756.01 593.021 755.73 601.412C755.189 617.646 749.822 634.093 745.819 649.749L730.26 711.506C727.354 723.198 723.933 735.064 721.894 746.929L721.788 747.572C704.094 747.451 686.395 747.996 668.696 747.925C671.394 738.379 673.49 728.592 675.823 718.948C680.218 701.24 684.464 683.496 688.561 665.717C691.872 651.734 697.171 635.22 698.791 621.182C699.263 617.097 699.303 612.609 697.182 608.951C695.195 605.522 691.207 603.824 687.493 602.909C682.631 601.711 676.389 604.105 672.232 606.66C666.974 609.891 662.142 615.272 659.534 620.869C652.761 635.402 650.377 653.143 646.614 668.726L627.181 747.988L615.625 748.003L573.682 747.976C575.71 736.251 579.365 724.369 582.22 712.8C588.404 687.737 594.778 662.658 600.662 637.528C602.512 629.629 606.599 615.868 601.789 608.609C599.821 605.64 596.655 604.026 593.203 603.455C586.905 602.414 580.432 604.631 575.332 608.259C569.843 612.164 566.135 618.029 563.539 624.146C556.979 639.607 554.309 658.391 550.256 674.827C544.279 699.068 536.943 723.378 532.685 747.996L479.11 747.994C480.331 740.628 482.424 733.366 484.246 726.126L491.877 695.233C502.208 652.829 513.204 610.48 522.862 567.927C538.974 568.186 555.081 567.583 571.203 567.881C569.82 574.969 568.359 582.041 566.82 589.097C582.911 571.807 598.226 566.059 621.509 563.711C629.164 563.566 637.093 564.246 643.978 567.905C652.776 572.578 656.365 580.273 659.058 589.308Z"/>
	<path fill="#002F60" d="M874.64 183.065C875.178 183.031 875.717 183.011 876.255 183.017C879.214 183.046 881.918 184.34 883.864 186.573C885.358 188.288 886.178 190.43 885.954 192.715C885.753 194.768 884.723 196.868 883.329 198.376C876.611 205.638 866.327 211.351 858.11 216.928L829.328 236.836L651.934 361.885C615.444 387.743 578.053 412.785 542.893 440.448C542.96 441.031 543.018 441.615 543.067 442.199C544.106 454.464 539.588 466.795 531.631 476.053C523.305 485.931 511.342 492.027 498.457 492.957C484.761 493.982 471.791 490.223 461.413 481.092C449.542 470.648 445.925 457.809 444.948 442.53C440.129 436.814 434.545 431.534 429.363 426.128L399.217 394.749L298.959 290.68C291.082 282.308 283.113 274.023 275.054 265.827C269.346 260.074 263.017 254.427 258.005 248.07C256.783 246.529 255.831 244.792 255.188 242.933C254.287 240.254 254.051 236.943 255.523 234.412C256.346 232.997 257.672 232.11 259.27 231.818C263.171 231.106 267.114 233.004 270.338 235.005C276.743 238.98 282.736 244.198 288.728 248.778L319.047 271.649L419.409 347.387C440.712 363.536 462.01 380.505 484.242 395.346C496.99 393.033 507.155 395.554 518.745 400.749C537.816 387.167 558.675 375.583 578.589 363.228L711.256 281.841L821.541 214.471C839.124 203.839 855.974 191.758 874.64 183.065Z"/>
	<path fill="#FEFEFE" d="M491.194 426.78C500.226 425.199 508.856 431.159 510.576 440.165C512.296 449.172 506.469 457.892 497.489 459.75C491.557 460.977 485.424 458.913 481.441 454.348C477.459 449.783 476.245 443.426 478.265 437.715C480.286 432.004 485.227 427.825 491.194 426.78Z"/>
	<path fill="#D41413" d="M320.683 589.549C323.823 585.663 327.644 582.078 331.605 579.037C346.234 567.805 367.719 562.412 385.971 564.922C394.749 566.129 403.026 569.55 408.414 576.885C413.367 583.626 414.738 591.287 414.628 599.489C414.418 615.183 409.423 631.317 405.546 646.436L389.712 707.9C386.433 720.872 382.658 734.227 380.806 747.472C363.246 747.131 345.567 747.413 328.005 747.654C334.619 719.497 341.416 691.383 348.395 663.315C351.812 649.399 356.722 634.105 358.32 619.943C358.718 616.417 358.843 613.463 357.075 610.245C355.396 607.188 352.387 605.214 349.057 604.353C343.402 602.892 337.008 604.356 332.101 607.357C326.998 610.477 322.952 615.232 320.34 620.584C313.695 634.198 311.249 652.343 307.652 667.144C301.115 694.152 294.435 721.125 287.611 748.063L278.829 747.986L234.43 747.996L254.276 667.186C258.075 651.874 263.269 635.819 264.644 620.101C264.97 616.375 264.892 612.558 262.868 609.275C261.21 606.584 258.518 604.913 255.477 604.195C250.2 602.949 244.259 604.433 239.713 607.23C234.135 610.662 230.486 616.134 227.878 622.005C220.971 637.553 218.473 655.586 214.486 672.047L195.743 748.056C178.385 748.027 160.93 747.711 143.588 748.336C147.26 729.996 152.667 711.738 157.217 693.586C167.676 651.861 178.509 610.019 187.789 568.023C203.733 568.082 219.678 568.033 235.622 567.876C233.993 575.419 232.452 582.953 230.633 590.456C231.37 589.357 232.117 588.259 232.933 587.216C244.244 572.745 261.159 566.768 278.811 564.697C288.152 563.123 300.919 565.004 308.832 570.462C315.511 575.068 319.235 581.704 320.683 589.549Z"/>
	<path fill="#D41413" d="M768.311 696.528L820.088 696.499L812.18 728.513C810.637 734.753 808.721 741.108 807.77 747.466C790.638 747.71 773.472 747.479 756.336 747.478C760.646 730.639 765.055 713.603 768.311 696.528Z"/>
	<path fill="#D41413" d="M420.918 696.507C436.31 697.152 451.887 696.674 467.295 696.507C464.665 706.677 462.096 716.862 459.585 727.062C457.894 733.834 455.935 740.607 454.734 747.484L408.669 747.495C413.137 730.616 416.286 713.38 420.918 696.507Z"/>
</svg>
